<?xml version="1.0" encoding="UTF-8"?>
<svg id="Warstwa_2" xmlns="http://www.w3.org/2000/svg" viewBox="0 0 44.25 14.69">
  <g id="Warstwa_1-2">
    <path d="M43.39,8.93v-3.93l-.77-.39c-.88-.46-1.88-.69-2.96-.69-.48,0-.92.05-1.34.15h-4.24l-.7.89V.64h-5.09v3.7401c-.58-.31-1.23-.46-1.93-.46-.39,0-.76.05-1.12.15h-2.83c.1-.28.15-.59.15-.91,0-.72-.26-1.37-.77-1.88-.5099-.51-1.16-.78-1.8799-.78s-1.3701.27-1.88.78c-.51.51-.78,1.16-.78,1.88,0,.27.04.54.12.78-.26,0-.5.05-.74.13h-3.58c-.31-.57-.72-1.09-1.22-1.5601-1.31-1.24-3.08-1.87-5.24-1.87H.5v13.41h5.79c2.22,0,4-.54,5.31-1.62v1.62h5.09v-4.27c.05-.11.16-.32.35-.68.06-.1.1-.16.13-.2.05.02.12.05.21.1v5.05h16v-.9l.71.9h3.77c.49.09,1.01.14,1.55.14,1.2599,0,2.29-.31,3.05-.92.59-.47,1.29-1.34,1.29-2.82,0-.53-.12-1.05-.36-1.52ZM7.81,8.79c-.11.12-.46.49-1.53.49h-.31v-3.87h.28c.73,0,1.25.16,1.57.49.33.32.48.8.48,1.45,0,.84-.27,1.23-.49,1.44Z" fill="none" stroke="#0d0807" stroke-miterlimit="20.7568"/>
    <path d="M1.9241,2.053h4.6647c1.8023,0,3.2272.4935,4.2747,1.4804s1.5713,2.2629,1.5713,3.828c0,1.6407-.5313,2.9293-1.594,3.8658s-2.5785,1.4047-4.5474,1.4047H1.9241V2.053ZM4.5594,3.9916v6.7018h1.719c1.1157,0,1.9689-.3067,2.5595-.9201s.886-1.4224.886-2.427c0-1.04-.2991-1.8591-.8974-2.4573s-1.4577-.8974-2.5785-.8974h-1.6887Z" fill="#0d0807"/>
    <path d="M15.2702,5.4834v2.0446h.0303c.6512-1.464,1.411-2.1961,2.2794-2.1961.414,0,.9112.2171,1.4918.6512l-.621,1.9916c-.5553-.3534-.9996-.5301-1.3328-.5301-.52,0-.9579.3218-1.3138.9668s-.5339,1.0198-.5339,1.1258v3.0947h-2.2491v-7.1485h2.2491Z" fill="#0d0807"/>
    <path d="M18.6735,3.1586c0-.3433.1212-.6361.3635-.8784s.5326-.3635.8709-.3635c.3433,0,.6361.1212.8784.3635s.3635.5351.3635.8784c0,.3382-.1212.6298-.3635.8746s-.5351.3673-.8784.3673c-.3382,0-.6285-.1224-.8709-.3673s-.3635-.5364-.3635-.8746ZM21.0437,5.4834v7.1485h-2.2491v-7.1485h2.2491Z"/>
    <path d="M24.0374,5.4834v1.0147c.6613-.7775,1.4363-1.1662,2.3248-1.1662.7421,0,1.3618.2373,1.8591.7118.4973.4758.7459,1.1548.7459,2.0396v4.5486h-2.2491v-4.3606c0-.9554-.3711-1.4325-1.1132-1.4325-.5301,0-1.0526.3938-1.5675,1.1813v4.6117h-2.2491v-7.1485h2.2491Z" fill="#0d0807"/>
    <path d="M31.9622,2.053v6.9668h.0303l2.7754-3.5364h2.6391l-2.7956,3.5364,2.9167,3.6121h-2.7514l-2.7842-3.5213h-.0303v3.5213h-2.2491V2.053h2.2491Z" fill="#0d0807"/>
    <path d="M41.9757,5.862v1.5978c-.8582-.525-1.6534-.7876-2.3854-.7876-.5402,0-.8103.1843-.8103.5528,0,.0959.0568.1906.1716.284.1136.0934.549.2903,1.3063.5919.756.3016,1.2911.65,1.6041,1.0438s.4695.8267.4695,1.2962c0,.7434-.2524,1.3164-.7573,1.7202-.5048.4051-1.2242.6071-2.1582.6071-.9592,0-1.8124-.1742-2.5595-.5225v-1.5827c.9188.4039,1.6887.6058,2.3096.6058.727,0,1.0905-.1767,1.0905-.5288,0-.1363-.0669-.265-.2019-.3849-.1338-.1212-.5844-.3319-1.3517-.6323-.7661-.2991-1.2911-.6285-1.5738-.987-.2827-.3597-.4241-.7585-.4241-1.1977,0-.6525.2714-1.1826.8141-1.5928.5427-.4089,1.2583-.6134,2.1468-.6134.8532,0,1.6231.1767,2.3096.5301Z" fill="#0d0807"/>
  </g>
</svg>